# xmcd CD database file
#
# Track frame offsets:
#	150
#	4981
#	18582
#	27912
#	39770
#
# Disc length: 779 seconds
#
# Revision: 0
# Processed by: cddbd v1.5.1PL2 Copyright (c) Steve Scherf et al.
# Submitted via: CDex 1.51
#
DISCID=2f030905
DTITLE=えてるなむじーく - スカッとゴルフ パンヤ　パンヤCD(仮)プレビューDisc
DYEAR=2005
DGENRE=Game
TTITLE0=Login
TTITLE1=Lobby
TTITLE2=My Room
TTITLE3=Course BGM 1
TTITLE4=Course BGM 2
EXTD=YEAR: 2005
EXTT0=
EXTT1=
EXTT2=
EXTT3=
EXTT4=
PLAYORDER=
